<svg width="42" height="43" viewBox="0 0 42 43" fill="none" xmlns="http://www.w3.org/2000/svg">
<g clip-path="url(#clip0_47_288)">
<path fill-rule="evenodd" clip-rule="evenodd" d="M28.7726 35.4581C29.5213 34.6603 30.0006 33.6476 30.1429 32.5627L38.3066 36.1905C38.7062 36.3685 39.144 36.4439 39.5801 36.4097C40.0162 36.3755 40.4369 36.2329 40.8039 35.9948C41.1709 35.7566 41.4725 35.4306 41.6814 35.0462C41.8903 34.6618 41.9998 34.2313 42 33.7939V14.2061C41.9996 13.769 41.8901 13.3389 41.6813 12.9548C41.4726 12.5708 41.1712 12.2449 40.8046 12.0069C40.438 11.7688 40.0177 11.626 39.582 11.5916C39.1462 11.5571 38.7087 11.632 38.3092 11.8095L30.1429 15.4372C29.9761 14.1749 29.3561 13.0161 28.3985 12.1768C27.4409 11.3375 26.2109 10.8748 24.9375 10.875H11.214L13.0883 13.5H24.9375C25.6337 13.5 26.3014 13.7766 26.7937 14.2688C27.2859 14.7611 27.5625 15.4288 27.5625 16.125V31.875C27.563 32.3543 27.4323 32.8245 27.1845 33.2347L28.7726 35.4581ZM3.7485 13.9725C3.40159 14.2141 3.11824 14.5361 2.92262 14.9109C2.72699 15.2857 2.62489 15.7022 2.625 16.125V31.875C2.625 32.5712 2.90156 33.2389 3.39384 33.7312C3.88613 34.2234 4.55381 34.5 5.25 34.5H18.4118L20.286 37.125H5.25C3.85761 37.125 2.52226 36.5719 1.53769 35.5873C0.553123 34.6027 0 33.2674 0 31.875V16.125C0 14.3531 0.87675 12.786 2.22338 11.8357L3.74588 13.9725H3.7485ZM39.375 33.7912L30.1875 29.7094V18.2906L39.375 14.2061V33.7939V33.7912ZM27.8066 43.1362L1.55663 6.38625L3.69337 4.86375L29.9434 41.6137L27.8066 43.1362Z" fill="#4531AC"/>
</g>
<defs>
<clipPath id="clip0_47_288">
<rect width="42" height="41.5882" fill="white" transform="translate(0 0.490196)"/>
</clipPath>
</defs>
</svg>
