<svg width="14" height="15" viewBox="0 0 14 15" fill="none" xmlns="http://www.w3.org/2000/svg">
<g clip-path="url(#clip0_47_322)">
<path d="M12.1222 7.19025C12.163 7.23089 12.1953 7.27917 12.2174 7.33232C12.2394 7.38547 12.2508 7.44245 12.2508 7.5C12.2508 7.55755 12.2394 7.61453 12.2174 7.66768C12.1953 7.72083 12.163 7.76911 12.1222 7.80975L5.99725 13.9348C5.95661 13.9755 5.90833 14.0078 5.85518 14.0299C5.80203 14.0519 5.74505 14.0633 5.6875 14.0633C5.62995 14.0633 5.57297 14.0519 5.51982 14.0299C5.46667 14.0078 5.41839 13.9755 5.37775 13.9348L2.31525 10.8723C2.2331 10.7901 2.18695 10.6787 2.18695 10.5625C2.18695 10.4463 2.2331 10.3349 2.31525 10.2528C2.3974 10.1706 2.50882 10.1244 2.625 10.1244C2.74118 10.1244 2.8526 10.1706 2.93475 10.2528L5.6875 13.0064L11.5027 7.19025C11.5434 7.14951 11.5917 7.11718 11.6448 7.09513C11.698 7.07307 11.755 7.06172 11.8125 7.06172C11.87 7.06172 11.927 7.07307 11.9802 7.09513C12.0333 7.11718 12.0816 7.14951 12.1222 7.19025Z" fill="#4531AC"/>
</g>
<defs>
<clipPath id="clip0_47_322">
<rect width="14" height="14" fill="white" transform="translate(0 0.411758)"/>
</clipPath>
</defs>
</svg>
