<svg width="18" height="18" viewBox="0 0 18 18" fill="none" xmlns="http://www.w3.org/2000/svg">
<g clip-path="url(#clip0_47_377)">
<path d="M15.3011 2.61681C14.4759 1.78394 13.4932 1.12364 12.4102 0.674386C11.3272 0.22513 10.1657 -0.00409981 8.99325 5.54968e-05C4.08037 5.54968e-05 0.0765 4.00281 0.072 8.91681C0.072 10.4907 0.48375 12.0218 1.26113 13.3774L0 18.0001L4.7295 16.7603C6.03788 17.4723 7.50367 17.8456 8.99325 17.8459H8.99775C13.9117 17.8459 17.9145 13.8432 17.919 8.92468C17.9201 7.75248 17.6893 6.59164 17.2398 5.50904C16.7903 4.42645 16.1311 3.44349 15.3 2.61681H15.3011ZM8.99325 16.3362C7.66462 16.3366 6.36041 15.9791 5.21775 15.3012L4.94775 15.1392L2.142 15.8749L2.89125 13.1378L2.71575 12.8554C1.97303 11.6745 1.58023 10.3073 1.58287 8.9123C1.58287 4.83306 4.9095 1.50531 8.99775 1.50531C9.97171 1.50356 10.9364 1.69461 11.8361 2.06746C12.7359 2.4403 13.553 2.98756 14.2402 3.67768C14.9299 4.36511 15.4766 5.18228 15.8489 6.08207C16.2212 6.98185 16.4116 7.94643 16.4093 8.92018C16.4048 13.0141 13.0781 16.3362 8.99325 16.3362ZM13.0601 10.7854C12.8385 10.6741 11.7439 10.1352 11.538 10.0587C11.3332 9.98556 11.1836 9.94731 11.0374 10.1701C10.8877 10.3917 10.4602 10.8968 10.332 11.0419C10.2037 11.1916 10.071 11.2084 9.84825 11.0982C9.62663 10.9857 8.90775 10.7517 8.05725 9.99006C7.3935 9.39943 6.94912 8.66818 6.81637 8.44656C6.68813 8.22381 6.804 8.10456 6.91537 7.99318C7.01325 7.89418 7.137 7.73218 7.24837 7.60393C7.36087 7.47568 7.398 7.38118 7.47112 7.23268C7.54425 7.08193 7.50938 6.95368 7.45425 6.84231C7.398 6.73093 6.95362 5.63181 6.76575 5.18856C6.58575 4.75093 6.40237 4.81168 6.26512 4.80606C6.13687 4.79818 5.98725 4.79818 5.83763 4.79818C5.72463 4.80099 5.61344 4.82712 5.51103 4.87494C5.40862 4.92276 5.3172 4.99123 5.2425 5.07606C5.03775 5.29881 4.46513 5.83768 4.46513 6.93681C4.46513 8.03593 5.26388 9.09231 5.37637 9.24193C5.48662 9.39156 6.94462 11.6404 9.18225 12.6079C9.711 12.8386 10.1273 12.9747 10.4524 13.0782C10.9868 13.2492 11.4694 13.2233 11.8541 13.1682C12.2816 13.1029 13.1715 12.6282 13.3594 12.1073C13.5439 11.5853 13.5439 11.1398 13.4876 11.0464C13.4325 10.9519 13.2829 10.8968 13.0601 10.7854Z" fill="#15198E"/>
</g>
<defs>
<clipPath id="clip0_47_377">
<rect width="18" height="18" fill="white"/>
</clipPath>
</defs>
</svg>
