<svg width="18" height="26" viewBox="0 0 18 26" fill="none" xmlns="http://www.w3.org/2000/svg">
<g clip-path="url(#clip0_47_372)">
<path fill-rule="evenodd" clip-rule="evenodd" d="M8.568 0.538452C3.79385 0.538452 0 4.40153 0 9.26153C0 15.7415 8.568 25.4615 8.568 25.4615C8.568 25.4615 17.1346 15.7415 17.1346 9.26153C17.1346 4.40153 13.3408 0.538452 8.56662 0.538452L8.568 0.538452ZM8.568 12.3769C6.85385 12.3769 5.508 11.0061 5.508 9.26153C5.508 7.51691 6.85385 6.14614 8.568 6.14614C10.2808 6.14614 11.628 7.51691 11.628 9.26153C11.628 11.0061 10.2808 12.3769 8.568 12.3769Z" fill="#15198E"/>
</g>
<defs>
<clipPath id="clip0_47_372">
<rect width="18" height="24.9231" fill="white" transform="translate(0 0.538452)"/>
</clipPath>
</defs>
</svg>
