<svg width="21" height="24" viewBox="0 0 21 24" fill="none" xmlns="http://www.w3.org/2000/svg">
<g clip-path="url(#clip0_47_405)">
<path d="M10.5047 6.60937C7.52343 6.60937 5.11875 9.01405 5.11875 11.9953C5.11875 14.9765 7.52343 17.3812 10.5047 17.3812C13.4859 17.3812 15.8906 14.9765 15.8906 11.9953C15.8906 9.01405 13.4859 6.60937 10.5047 6.60937ZM10.5047 15.4969C8.57812 15.4969 7.00312 13.9265 7.00312 11.9953C7.00312 10.0641 8.57343 8.49374 10.5047 8.49374C12.4359 8.49374 14.0062 10.0641 14.0062 11.9953C14.0062 13.9265 12.4312 15.4969 10.5047 15.4969ZM17.3672 6.38905C17.3672 7.08749 16.8047 7.6453 16.1109 7.6453C15.4125 7.6453 14.8547 7.0828 14.8547 6.38905C14.8547 5.6953 15.4172 5.1328 16.1109 5.1328C16.8047 5.1328 17.3672 5.6953 17.3672 6.38905ZM20.9343 7.66405C20.8547 5.98124 20.4703 4.49062 19.2375 3.26249C18.0093 2.03437 16.5187 1.64999 14.8359 1.56562C13.1015 1.46718 7.90312 1.46718 6.16875 1.56562C4.49062 1.64531 3 2.02968 1.76719 3.25781C0.53438 4.48593 0.154693 5.97655 0.0703185 7.65937C-0.0281189 9.39374 -0.0281189 14.5922 0.0703185 16.3265C0.150006 18.0094 0.53438 19.5 1.76719 20.7281C3 21.9562 4.48594 22.3406 6.16875 22.425C7.90312 22.5234 13.1015 22.5234 14.8359 22.425C16.5187 22.3453 18.0093 21.9609 19.2375 20.7281C20.4656 19.5 20.85 18.0094 20.9343 16.3265C21.0328 14.5922 21.0328 9.39843 20.9343 7.66405ZM18.6937 18.1875C18.3281 19.1062 17.6203 19.814 16.6969 20.1844C15.314 20.7328 12.0328 20.6062 10.5047 20.6062C8.97655 20.6062 5.69062 20.7281 4.3125 20.1844C3.39375 19.8187 2.68594 19.1109 2.31563 18.1875C1.76719 16.8047 1.89375 13.5234 1.89375 11.9953C1.89375 10.4672 1.77188 7.18124 2.31563 5.80312C2.68125 4.88437 3.38906 4.17655 4.3125 3.80624C5.69531 3.25781 8.97655 3.38437 10.5047 3.38437C12.0328 3.38437 15.3187 3.26249 16.6969 3.80624C17.6156 4.17187 18.3234 4.87968 18.6937 5.80312C19.2422 7.18593 19.1156 10.4672 19.1156 11.9953C19.1156 13.5234 19.2422 16.8094 18.6937 18.1875Z" fill="#15198E"/>
</g>
<defs>
<clipPath id="clip0_47_405">
<rect width="21" height="24" fill="white"/>
</clipPath>
</defs>
</svg>
