<svg width="42" height="43" viewBox="0 0 42 43" fill="none" xmlns="http://www.w3.org/2000/svg">
<g clip-path="url(#clip0_47_267)">
<path d="M21 5.625C21 4.92881 21.2766 4.26113 21.7688 3.76884C22.2611 3.27656 22.9288 3 23.625 3H39.375C40.0712 3 40.7389 3.27656 41.2312 3.76884C41.7234 4.26113 42 4.92881 42 5.625V42.375C42 43.0712 41.7234 43.7389 41.2312 44.2312C40.7389 44.7234 40.0712 45 39.375 45H23.625C22.9288 45 22.2611 44.7234 21.7688 44.2312C21.2766 43.7389 21 43.0712 21 42.375V5.625ZM23.625 41.0625C23.625 41.4106 23.7633 41.7444 24.0094 41.9906C24.2556 42.2367 24.5894 42.375 24.9375 42.375C25.2856 42.375 25.6194 42.2367 25.8656 41.9906C26.1117 41.7444 26.25 41.4106 26.25 41.0625C26.25 40.7144 26.1117 40.3806 25.8656 40.1344C25.6194 39.8883 25.2856 39.75 24.9375 39.75C24.5894 39.75 24.2556 39.8883 24.0094 40.1344C23.7633 40.3806 23.625 40.7144 23.625 41.0625ZM28.875 41.0625C28.875 41.4106 29.0133 41.7444 29.2594 41.9906C29.5056 42.2367 29.8394 42.375 30.1875 42.375C30.5356 42.375 30.8694 42.2367 31.1156 41.9906C31.3617 41.7444 31.5 41.4106 31.5 41.0625C31.5 40.7144 31.3617 40.3806 31.1156 40.1344C30.8694 39.8883 30.5356 39.75 30.1875 39.75C29.8394 39.75 29.5056 39.8883 29.2594 40.1344C29.0133 40.3806 28.875 40.7144 28.875 41.0625ZM24.9375 5.625C24.5894 5.625 24.2556 5.76328 24.0094 6.00942C23.7633 6.25556 23.625 6.5894 23.625 6.9375C23.625 7.2856 23.7633 7.61944 24.0094 7.86558C24.2556 8.11172 24.5894 8.25 24.9375 8.25H38.0625C38.4106 8.25 38.7444 8.11172 38.9906 7.86558C39.2367 7.61944 39.375 7.2856 39.375 6.9375C39.375 6.5894 39.2367 6.25556 38.9906 6.00942C38.7444 5.76328 38.4106 5.625 38.0625 5.625H24.9375ZM23.625 12.1875C23.625 12.5356 23.7633 12.8694 24.0094 13.1156C24.2556 13.3617 24.5894 13.5 24.9375 13.5H38.0625C38.4106 13.5 38.7444 13.3617 38.9906 13.1156C39.2367 12.8694 39.375 12.5356 39.375 12.1875C39.375 11.8394 39.2367 11.5056 38.9906 11.2594C38.7444 11.0133 38.4106 10.875 38.0625 10.875H24.9375C24.5894 10.875 24.2556 11.0133 24.0094 11.2594C23.7633 11.5056 23.625 11.8394 23.625 12.1875ZM3.9375 8.25C2.89321 8.25 1.89169 8.66484 1.15327 9.40327C0.414843 10.1417 0 11.1432 0 12.1875L0 30.5625C0 31.6068 0.414843 32.6083 1.15327 33.3467C1.89169 34.0852 2.89321 34.5 3.9375 34.5H15.75V39.75H14.4375C14.0894 39.75 13.7556 39.8883 13.5094 40.1344C13.2633 40.3806 13.125 40.7144 13.125 41.0625C13.125 41.4106 13.2633 41.7444 13.5094 41.9906C13.7556 42.2367 14.0894 42.375 14.4375 42.375H18.375V31.875H3.9375C3.5894 31.875 3.25556 31.7367 3.00942 31.4906C2.76328 31.2444 2.625 30.9106 2.625 30.5625V12.1875C2.625 11.8394 2.76328 11.5056 3.00942 11.2594C3.25556 11.0133 3.5894 10.875 3.9375 10.875H18.375V8.25H3.9375Z" fill="#4531AC"/>
</g>
<defs>
<clipPath id="clip0_47_267">
<rect width="42" height="41.5882" fill="white" transform="translate(0 0.490196)"/>
</clipPath>
</defs>
</svg>
