<svg width="25" height="24" viewBox="0 0 25 24" fill="none" xmlns="http://www.w3.org/2000/svg">
<g clip-path="url(#clip0_47_418)">
<path opacity="0.4" d="M12.5 0.375C6.07812 0.375 0.875 5.57812 0.875 12C0.875 18.4219 6.07812 23.625 12.5 23.625C18.9219 23.625 24.125 18.4219 24.125 12C24.125 5.57812 18.9219 0.375 12.5 0.375ZM17.9234 13.125L9.67344 17.8594C8.93281 18.2719 8 17.7422 8 16.875V7.125C8 6.2625 8.92812 5.72813 9.67344 6.14062L17.9234 11.1562C18.6922 11.5875 18.6922 12.6984 17.9234 13.125Z" fill="#4531AC"/>
<path d="M17.9235 13.1249L9.67344 17.8593C8.93281 18.2718 8 17.7421 8 16.8749V7.12494C8 6.26244 8.92813 5.72807 9.67344 6.14057L17.9235 11.1562C18.6922 11.5874 18.6922 12.6984 17.9235 13.1249Z" fill="white"/>
</g>
<defs>
<clipPath id="clip0_47_418">
<rect width="24" height="24" fill="white" transform="translate(0.5)"/>
</clipPath>
</defs>
</svg>
