<svg width="42" height="43" viewBox="0 0 42 43" fill="none" xmlns="http://www.w3.org/2000/svg">
<g clip-path="url(#clip0_47_331)">
<path d="M15.75 35.8125C15.75 35.4644 15.8883 35.1306 16.1344 34.8844C16.3806 34.6383 16.7144 34.5 17.0625 34.5H24.9375C25.2856 34.5 25.6194 34.6383 25.8656 34.8844C26.1117 35.1306 26.25 35.4644 26.25 35.8125C26.25 36.1606 26.1117 36.4944 25.8656 36.7406C25.6194 36.9867 25.2856 37.125 24.9375 37.125H17.0625C16.7144 37.125 16.3806 36.9867 16.1344 36.7406C15.8883 36.4944 15.75 36.1606 15.75 35.8125ZM7.87499 24.1628C7.87499 20.745 11.1169 18.1331 14.5162 18.4508C18.8294 18.8533 23.1706 18.8533 27.4837 18.4508C30.8831 18.1331 34.125 20.745 34.125 24.1628V27.1999C34.1357 27.7807 33.9396 28.3464 33.5718 28.796C33.204 29.2456 32.6883 29.5498 32.1169 29.6543C29.8987 30.0401 25.9744 30.5625 21 30.5625C16.0256 30.5625 12.1012 30.0375 9.88312 29.6543C9.3117 29.5498 8.79602 29.2456 8.42818 28.796C8.06034 28.3464 7.86427 27.7807 7.87499 27.1999V24.1628ZM19.7977 21.9919C19.6954 21.9745 19.5905 21.9816 19.4915 22.0126C19.3924 22.0436 19.3022 22.0977 19.2281 22.1704L16.8131 24.5329C15.1705 24.435 13.5322 24.2747 11.9017 24.0525C11.7328 24.0357 11.5639 24.0851 11.4306 24.1902C11.2972 24.2953 11.2098 24.448 11.1867 24.6162C11.1636 24.7844 11.2066 24.9551 11.3066 25.0922C11.4067 25.2294 11.556 25.3225 11.7232 25.3519C13.167 25.5514 14.9572 25.743 17.0257 25.8585C17.1168 25.8636 17.208 25.8497 17.2935 25.8176C17.3789 25.7855 17.4567 25.736 17.5219 25.6721L19.5011 23.7401L21.7245 28.2289C21.7713 28.323 21.8401 28.4046 21.925 28.4666C22.01 28.5286 22.1086 28.5693 22.2125 28.5853C22.3165 28.6012 22.4228 28.592 22.5224 28.5583C22.622 28.5246 22.7121 28.4674 22.785 28.3916L25.2315 25.8454C26.9189 25.7452 28.6019 25.5806 30.2767 25.3519C30.444 25.3225 30.5933 25.2294 30.6933 25.0922C30.7934 24.9551 30.8364 24.7844 30.8133 24.6162C30.7902 24.448 30.7028 24.2953 30.5694 24.1902C30.4361 24.0851 30.2672 24.0357 30.0982 24.0525C28.686 24.2468 26.9299 24.4331 24.9007 24.5486C24.7355 24.5578 24.5799 24.6291 24.465 24.7481L22.4857 26.8088L20.2755 22.3463C20.2294 22.2537 20.1621 22.1734 20.0791 22.1118C19.996 22.0502 19.8997 22.0091 19.7977 21.9919Z" fill="#4531AC"/>
<path d="M22.3125 7.89832C22.8129 7.60939 23.2041 7.16341 23.4252 6.62954C23.6463 6.09568 23.6851 5.50376 23.5356 4.9456C23.386 4.38744 23.0564 3.89422 22.598 3.54245C22.1396 3.19067 21.5779 3 21 3C20.4221 3 19.8604 3.19067 19.402 3.54245C18.9436 3.89422 18.614 4.38744 18.4644 4.9456C18.3149 5.50376 18.3537 6.09568 18.5748 6.62954C18.7959 7.16341 19.1871 7.60939 19.6875 7.89832V10.8751H14.4375C11.3046 10.8751 8.30007 12.1196 6.0848 14.3349C3.86953 16.5501 2.625 19.5547 2.625 22.6876V24.0001C1.92881 24.0001 1.26113 24.2766 0.768845 24.7689C0.276562 25.2612 0 25.9289 0 26.6251L0 31.8751C0 32.5713 0.276562 33.2389 0.768845 33.7312C1.26113 34.2235 1.92881 34.5001 2.625 34.5001V37.1251C2.625 38.5175 3.17812 39.8528 4.16269 40.8374C5.14726 41.8219 6.48261 42.3751 7.875 42.3751H34.125C35.5174 42.3751 36.8527 41.8219 37.8373 40.8374C38.8219 39.8528 39.375 38.5175 39.375 37.1251V34.5001C40.0712 34.5001 40.7389 34.2235 41.2312 33.7312C41.7234 33.2389 42 32.5713 42 31.8751V26.6251C42 25.9289 41.7234 25.2612 41.2312 24.7689C40.7389 24.2766 40.0712 24.0001 39.375 24.0001V22.6876C39.375 19.5547 38.1305 16.5501 35.9152 14.3349C33.6999 12.1196 30.6954 10.8751 27.5625 10.8751H22.3125V7.89832ZM36.75 22.6876V37.1251C36.75 37.8213 36.4734 38.4889 35.9812 38.9812C35.4889 39.4735 34.8212 39.7501 34.125 39.7501H7.875C7.17881 39.7501 6.51113 39.4735 6.01884 38.9812C5.52656 38.4889 5.25 37.8213 5.25 37.1251V22.6876C5.25 20.2509 6.21797 17.914 7.94096 16.191C9.66395 14.468 12.0008 13.5001 14.4375 13.5001H27.5625C29.9992 13.5001 32.3361 14.468 34.059 16.191C35.782 17.914 36.75 20.2509 36.75 22.6876Z" fill="#4531AC"/>
</g>
<defs>
<clipPath id="clip0_47_331">
<rect width="42" height="41.5882" fill="white" transform="translate(0 0.490196)"/>
</clipPath>
</defs>
</svg>
