<svg width="42" height="43" viewBox="0 0 42 43" fill="none" xmlns="http://www.w3.org/2000/svg">
<path d="M40.383 19.0519C40.515 18.9237 40.6176 18.7684 40.6839 18.5967C40.7501 18.4251 40.7783 18.2411 40.7666 18.0574C40.7548 17.8738 40.7034 17.6949 40.6159 17.5331C40.5284 17.3712 40.4069 17.2302 40.2596 17.1199C34.6632 13.051 27.9192 10.8643 21 10.875C13.8049 10.875 7.14787 13.1903 1.74037 17.1199C1.59297 17.23 1.47119 17.3708 1.38344 17.5326C1.29569 17.6943 1.24405 17.8732 1.23207 18.0568C1.2201 18.2405 1.24807 18.4245 1.31407 18.5963C1.38007 18.7681 1.48252 18.9235 1.61438 19.0519C1.84379 19.2778 2.14595 19.415 2.46705 19.4391C2.78816 19.4631 3.10738 19.3724 3.36788 19.1831C8.50012 15.4792 14.6708 13.4903 21 13.5C27.5809 13.5 33.6709 15.6053 38.6295 19.1805C39.1676 19.569 39.9158 19.5218 40.383 19.0519Z" fill="#4531AC"/>
<path d="M34.7262 25.4043C34.8614 25.2738 34.9659 25.1148 35.032 24.9388C35.0982 24.7629 35.1242 24.5744 35.1084 24.3872C35.0926 24.1999 35.0352 24.0185 34.9405 23.8561C34.8458 23.6938 34.7161 23.5546 34.5608 23.4487C30.5246 20.8268 25.8131 19.435 21.0001 19.4429C15.9994 19.4429 11.3401 20.9129 7.43931 23.4487C7.28326 23.554 7.15279 23.6929 7.05749 23.8553C6.9622 24.0177 6.9045 24.1993 6.88864 24.3869C6.87277 24.5745 6.89915 24.7633 6.96583 24.9393C7.0325 25.1154 7.13778 25.2743 7.27393 25.4043C7.49759 25.6226 7.78881 25.7584 8.0998 25.7894C8.41079 25.8204 8.72308 25.7448 8.98543 25.5749C12.5712 23.2782 16.7418 22.0608 21.0001 22.0679C25.2574 22.0613 29.427 23.2787 33.0121 25.5749C33.5528 25.9214 34.2721 25.8584 34.7262 25.4043ZM28.9958 31.1347C29.5891 30.5414 29.4814 29.5465 28.7333 29.1659C26.338 27.947 23.6877 27.3136 21.0001 27.3179C18.2176 27.3179 15.5873 27.9847 13.2668 29.1659C12.5187 29.5465 12.4111 30.5414 13.0043 31.1347L13.0437 31.174C13.4637 31.594 14.1121 31.6728 14.6476 31.4103C16.6248 30.4412 18.7981 29.9392 21.0001 29.9429C23.2786 29.9429 25.4363 30.4705 27.3526 31.4129C27.8854 31.6754 28.5338 31.5967 28.9538 31.174L28.9958 31.1347ZM23.7826 36.3479C24.2971 35.8334 24.3023 34.9829 23.6776 34.6154C22.8677 34.1334 21.9425 33.8794 21.0001 33.8804C20.0576 33.8794 19.1324 34.1334 18.3226 34.6154C17.6978 34.9829 17.7031 35.8334 18.2176 36.3479L20.0708 38.2012C20.3169 38.4472 20.6507 38.5854 20.9987 38.5854C21.3468 38.5854 21.6806 38.4472 21.9267 38.2012L23.7826 36.3453V36.3479Z" fill="#4531AC"/>
</svg>
