<svg width="27" height="24" viewBox="0 0 27 24" fill="none" xmlns="http://www.w3.org/2000/svg">
<path d="M25.765 5.81639C25.4706 4.7078 24.6031 3.8347 23.5017 3.53841C21.5053 3 13.4999 3 13.4999 3C13.4999 3 5.49462 3 3.49817 3.53841C2.39675 3.83475 1.52928 4.7078 1.23486 5.81639C0.699921 7.82578 0.699921 12.0182 0.699921 12.0182C0.699921 12.0182 0.699921 16.2106 1.23486 18.22C1.52928 19.3286 2.39675 20.1653 3.49817 20.4616C5.49462 21 13.4999 21 13.4999 21C13.4999 21 21.5052 21 23.5017 20.4616C24.6031 20.1653 25.4706 19.3286 25.765 18.22C26.3 16.2106 26.3 12.0182 26.3 12.0182C26.3 12.0182 26.3 7.82578 25.765 5.81639ZM10.8817 15.8246V8.2118L17.5726 12.0183L10.8817 15.8246Z" fill="#15198E"/>
</svg>
