<svg width="40" height="40" viewBox="0 0 40 40" fill="none" xmlns="http://www.w3.org/2000/svg">
<g clip-path="url(#clip0_908_8)">
<path d="M20.5046 14.6094C17.5234 14.6094 15.1187 17.0141 15.1187 19.9953C15.1187 22.9766 17.5234 25.3813 20.5046 25.3813C23.4859 25.3813 25.8906 22.9766 25.8906 19.9953C25.8906 17.0141 23.4859 14.6094 20.5046 14.6094ZM20.5046 23.4969C18.5781 23.4969 17.0031 21.9266 17.0031 19.9953C17.0031 18.0641 18.5734 16.4938 20.5046 16.4938C22.4359 16.4938 24.0062 18.0641 24.0062 19.9953C24.0062 21.9266 22.4312 23.4969 20.5046 23.4969ZM27.3671 14.3891C27.3671 15.0875 26.8046 15.6453 26.1109 15.6453C25.4124 15.6453 24.8546 15.0828 24.8546 14.3891C24.8546 13.6953 25.4171 13.1328 26.1109 13.1328C26.8046 13.1328 27.3671 13.6953 27.3671 14.3891ZM30.9343 15.6641C30.8546 13.9813 30.4703 12.4906 29.2374 11.2625C28.0093 10.0344 26.5187 9.65002 24.8359 9.56565C23.1015 9.46721 17.9031 9.46721 16.1687 9.56565C14.4906 9.64534 13 10.0297 11.7672 11.2578C10.5343 12.486 10.1547 13.9766 10.0703 15.6594C9.97185 17.3938 9.97185 22.5922 10.0703 24.3266C10.15 26.0094 10.5343 27.5 11.7672 28.7281C13 29.9563 14.4859 30.3406 16.1687 30.425C17.9031 30.5234 23.1015 30.5234 24.8359 30.425C26.5187 30.3453 28.0093 29.961 29.2374 28.7281C30.4656 27.5 30.8499 26.0094 30.9343 24.3266C31.0328 22.5922 31.0328 17.3985 30.9343 15.6641ZM28.6937 26.1875C28.3281 27.1063 27.6203 27.8141 26.6968 28.1844C25.314 28.7328 22.0328 28.6063 20.5046 28.6063C18.9765 28.6063 15.6906 28.7281 14.3125 28.1844C13.3937 27.8188 12.6859 27.111 12.3156 26.1875C11.7672 24.8047 11.8937 21.5235 11.8937 19.9953C11.8937 18.4672 11.7718 15.1813 12.3156 13.8031C12.6812 12.8844 13.389 12.1766 14.3125 11.8063C15.6953 11.2578 18.9765 11.3844 20.5046 11.3844C22.0328 11.3844 25.3187 11.2625 26.6968 11.8063C27.6156 12.1719 28.3234 12.8797 28.6937 13.8031C29.2421 15.186 29.1156 18.4672 29.1156 19.9953C29.1156 21.5235 29.2421 24.8094 28.6937 26.1875Z" fill="white"/>
</g>
<defs>
<clipPath id="clip0_908_8">
<rect width="21" height="24" fill="white" transform="translate(10 8)"/>
</clipPath>
</defs>
</svg>
