<svg width="21" height="25" viewBox="0 0 21 25" fill="none" xmlns="http://www.w3.org/2000/svg">
<g clip-path="url(#clip0_2_19)">
<path opacity="0.4" d="M0.00274658 8V7.99391L4.50275 7.99672V6.49672C4.50556 3.18828 7.19853 0.5 10.507 0.5C13.8154 0.5 16.507 3.19484 16.5032 6.50328V8H13.5032V6.5C13.5037 5.70435 13.1881 4.94109 12.6259 4.37813C12.0636 3.81517 11.3007 3.49862 10.5051 3.49813C9.70944 3.49763 8.94618 3.81322 8.38322 4.37548C7.82026 4.93774 7.50371 5.7006 7.50322 6.49625V7.99625H10.5032L0.00274658 8Z" fill="white"/>
<path d="M0.00286205 7.9939L-0.00463794 20.7439C-0.00494582 21.2364 0.0917458 21.724 0.279916 22.1791C0.468087 22.6342 0.744051 23.0478 1.09205 23.3962C1.44005 23.7447 1.85328 24.0212 2.30813 24.2099C2.76298 24.3986 3.25056 24.4959 3.74301 24.4962L17.243 24.5037C18.2376 24.5037 19.1914 24.1087 19.8946 23.4054C20.5979 22.7021 20.993 21.7483 20.993 20.7537L21.0005 8.00374L0.00286205 7.9939ZM6.00004 12.1222C5.77754 12.1222 5.56003 12.0562 5.37503 11.9326C5.19002 11.809 5.04583 11.6333 4.96068 11.4277C4.87553 11.2221 4.85325 10.9959 4.89666 10.7777C4.94007 10.5595 5.04721 10.359 5.20455 10.2017C5.36188 10.0443 5.56234 9.9372 5.78056 9.89379C5.99879 9.85039 6.22499 9.87266 6.43056 9.95781C6.63613 10.043 6.81183 10.1872 6.93544 10.3722C7.05906 10.5572 7.12504 10.7747 7.12504 10.9972C7.12504 11.2955 7.00651 11.5817 6.79554 11.7927C6.58456 12.0037 6.29841 12.1222 6.00004 12.1222ZM15 12.1278C14.7775 12.1278 14.56 12.0618 14.375 11.9382C14.19 11.8146 14.0458 11.6389 13.9607 11.4333C13.8755 11.2278 13.8532 11.0016 13.8966 10.7833C13.9401 10.5651 14.0472 10.3646 14.2045 10.2073C14.3619 10.05 14.5623 9.94283 14.7806 9.89942C14.9988 9.85601 15.225 9.87829 15.4305 9.96344C15.6361 10.0486 15.8118 10.1928 15.9354 10.3778C16.059 10.5628 16.125 10.7803 16.125 11.0028C16.125 11.3012 16.0065 11.5873 15.7955 11.7983C15.5845 12.0093 15.2984 12.1278 15 12.1278Z" fill="white"/>
</g>
<defs>
<clipPath id="clip0_2_19">
<rect width="21" height="24" fill="white" transform="translate(0 0.5)"/>
</clipPath>
</defs>
</svg>
