<svg width="40" height="40" viewBox="0 0 40 40" fill="none" xmlns="http://www.w3.org/2000/svg">
<path d="M29.533 15.1117C29.5482 15.3249 29.5482 15.5381 29.5482 15.7513C29.5482 22.2538 24.599 29.7462 15.5533 29.7462C12.7665 29.7462 10.1777 28.9391 8 27.5381C8.39595 27.5838 8.77662 27.599 9.18781 27.599C11.4873 27.599 13.604 26.8224 15.2944 25.4975C13.132 25.4518 11.3198 24.0356 10.6954 22.0863C11 22.132 11.3045 22.1624 11.6244 22.1624C12.066 22.1624 12.5076 22.1015 12.9188 21.995C10.665 21.5381 8.97458 19.5584 8.97458 17.1675V17.1066C9.62937 17.4721 10.3909 17.7005 11.1979 17.731C9.87303 16.8477 9.00505 15.3401 9.00505 13.6345C9.00505 12.7208 9.24866 11.8833 9.67508 11.1523C12.0964 14.1371 15.736 16.0863 19.8172 16.2995C19.7411 15.934 19.6954 15.5533 19.6954 15.1726C19.6954 12.4619 21.8883 10.2538 24.6141 10.2538C26.0304 10.2538 27.3095 10.8478 28.208 11.8071C29.3197 11.594 30.3857 11.1828 31.3299 10.6193C30.9643 11.7615 30.1877 12.7209 29.1674 13.33C30.1573 13.2234 31.1167 12.9493 31.9999 12.5686C31.33 13.5432 30.4924 14.4111 29.533 15.1117Z" fill="white"/>
</svg>
