<svg width="40" height="40" viewBox="0 0 40 40" fill="none" xmlns="http://www.w3.org/2000/svg">
<path d="M32.765 13.8164C32.4706 12.7078 31.6032 11.8347 30.5017 11.5384C28.5053 11 20.5 11 20.5 11C20.5 11 12.4947 11 10.4982 11.5384C9.39678 11.8347 8.52931 12.7078 8.23489 13.8164C7.69995 15.8258 7.69995 20.0182 7.69995 20.0182C7.69995 20.0182 7.69995 24.2106 8.23489 26.22C8.52931 27.3286 9.39678 28.1653 10.4982 28.4616C12.4947 29 20.5 29 20.5 29C20.5 29 28.5053 29 30.5017 28.4616C31.6032 28.1653 32.4706 27.3286 32.765 26.22C33.3 24.2106 33.3 20.0182 33.3 20.0182C33.3 20.0182 33.3 15.8258 32.765 13.8164ZM17.8818 23.8246V16.2118L24.5727 20.0183L17.8818 23.8246Z" fill="white"/>
</svg>
